<?xml version="1.0" encoding="UTF-8" standalone="no"?>
<svg
   xmlns:dc="http://purl.org/dc/elements/1.1/"
   xmlns:cc="http://creativecommons.org/ns#"
   xmlns:rdf="http://www.w3.org/1999/02/22-rdf-syntax-ns#"
   xmlns:svg="http://www.w3.org/2000/svg"
   xmlns="http://www.w3.org/2000/svg"
   xmlns:sodipodi="http://sodipodi.sourceforge.net/DTD/sodipodi-0.dtd"
   xmlns:inkscape="http://www.inkscape.org/namespaces/inkscape"
   width="48"
   height="48"
   viewBox="0 0 12.7 12.7"
   version="1.1"
   id="svg8"
   sodipodi:docname="icon.svg"
   inkscape:version="1.0 (4035a4fb49, 2020-05-01)">
  <defs
     id="defs2" />
  <sodipodi:namedview
     id="base"
     pagecolor="#ffffff"
     bordercolor="#666666"
     borderopacity="1.0"
     inkscape:pageopacity="0.0"
     inkscape:pageshadow="2"
     inkscape:zoom="22.4"
     inkscape:cx="24.031553"
     inkscape:cy="25.506333"
     inkscape:document-units="px"
     inkscape:current-layer="layer1"
     inkscape:document-rotation="0"
     showgrid="false"
     units="px"
     showborder="true"
     inkscape:window-width="3200"
     inkscape:window-height="1708"
     inkscape:window-x="-12"
     inkscape:window-y="-12"
     inkscape:window-maximized="1" />
  <metadata
     id="metadata5">
    <rdf:RDF>
      <cc:Work
         rdf:about="">
        <dc:format>image/svg+xml</dc:format>
        <dc:type
           rdf:resource="http://purl.org/dc/dcmitype/StillImage" />
        <dc:title />
      </cc:Work>
    </rdf:RDF>
  </metadata>
  <g
     inkscape:label="Layer 1"
     inkscape:groupmode="layer"
     id="layer1">
    <rect
       transform="scale(1,-1)"
       rx="1.5319489"
       y="-12.66221"
       x="0.047247022"
       height="12.638577"
       width="12.638577"
       id="rect838"
       style="fill:#ffffff;stroke:none;stroke-width:0.444878;stroke-opacity:1" />
    <g
       transform="matrix(1.3143991,0,0,1.3143991,-1.9817231,-1.4751543)"
       aria-label="W"
       id="text1404-9-8"
       style="font-style:normal;font-weight:normal;font-size:8.46667px;line-height:1.25;font-family:sans-serif;fill:#202514;fill-opacity:1;stroke:none;stroke-width:0.264583;stroke-opacity:1">
      <path
         d="m 9.2060837,6.7973824 q 0.6697268,-1.599903 1.0996753,-2.7615897 0.07028,-0.1901693 0.111621,-0.2356446 0.04134,-0.049609 0.14056,-0.049609 0.08268,0 0.14056,0.041341 0.06201,0.041341 0.06201,0.099219 0,0.053743 -0.322461,0.785482 L 10.198272,5.2140159 8.1436158,9.8690307 7.1224891,7.9466667 6.3204706,6.5162625 5.6879508,7.673815 4.7247017,9.4804238 4.5262641,9.8690307 3.7283797,7.9011914 3.0255799,6.1938014 Q 2.5046813,4.9080913 2.0209897,3.8828304 L 1.996185,3.8290869 h 2.5879567 l 0.355534,0.9095056 Q 5.4853791,6.1028508 5.803706,6.78498 L 6.5685175,5.3793805 6.8496374,4.8502136 7.0398068,4.4946796 7.3581337,3.8993669 q 0.074414,-0.1446941 0.14056,-0.2604493 l 0.6118492,1.1947596 q 0.5291669,1.0128584 1.0955408,1.9637052 z"
         style="font-style:normal;font-variant:normal;font-weight:normal;font-stretch:normal;font-size:8.46667px;font-family:Broadway;-inkscape-font-specification:Broadway;fill:#202514;fill-opacity:1;stroke:none;stroke-width:0.264583;stroke-opacity:1"
         id="path1508" />
    </g>
    <path
       id="path1511"
       style="font-style:normal;font-variant:normal;font-weight:normal;font-stretch:normal;font-size:8.46667px;line-height:1.25;font-family:Broadway;-inkscape-font-specification:Broadway;fill:#46512d;fill-opacity:1;stroke:none;stroke-width:0.347768;stroke-opacity:1"
       d="m 10.118745,6.7637831 q 0.880288,-2.1029109 1.445413,-3.6298309 0.09238,-0.2499583 0.146714,-0.309731 0.05434,-0.065206 0.184752,-0.065206 0.108675,0 0.184752,0.054339 0.08151,0.054339 0.08151,0.1304134 0,0.070641 -0.423842,1.032437 L 11.422877,4.6826076 8.7222381,10.801155 7.3800701,8.2744014 6.3258977,6.3942793 5.4945143,7.9157654 4.2284206,10.29037 3.9675944,10.801155 2.9188558,8.2146288 1.9950964,5.9704369 Q 1.3104278,4.2805006 0.67466398,2.9328987 L 0.64206031,2.862259 H 4.0436682 l 0.4673136,1.1954533 q 0.7172724,1.7931792 1.135681,2.6897692 L 6.6519304,4.8999628 7.0214341,4.2044263 7.2713926,3.7371128 7.6898012,2.9546343 Q 7.7876109,2.7644485 7.8745531,2.6123 l 0.804214,1.5703908 q 0.6955365,1.3313003 1.4399779,2.5810923 z" />
    <path
       id="path1505"
       style="font-style:normal;font-variant:normal;font-weight:normal;font-stretch:normal;font-size:8.46667px;line-height:1.25;font-family:Broadway;-inkscape-font-specification:Broadway;fill:#7bad00;fill-opacity:1;stroke:none;stroke-width:0.347768;stroke-opacity:1"
       d="m 10.118745,6.0682475 q 0.880288,-2.102911 1.445413,-3.6298308 0.09238,-0.2499585 0.146714,-0.3097311 0.05434,-0.065206 0.184752,-0.065206 0.108675,0 0.184752,0.054339 0.08151,0.054339 0.08151,0.1304133 0,0.07064 -0.423842,1.032437 L 11.422877,3.987072 8.7222381,10.105619 7.3800701,7.5788657 6.3258977,5.6987438 5.4945143,7.2202299 4.2284206,9.5948348 3.9675944,10.105619 2.9188558,7.5190932 1.9950964,5.2749013 Q 1.3104278,3.584965 0.67466398,2.2373632 L 0.6420607,2.1667228 H 4.0436686 L 4.5109822,3.362176 q 0.717272,1.7931799 1.1356806,2.6897699 L 6.6519304,4.2044272 7.0214341,3.5088908 7.2713926,3.0415772 7.6898012,2.2590987 q 0.09781,-0.1901858 0.1847519,-0.3423344 l 0.804214,1.5703909 q 0.6955365,1.3313003 1.4399779,2.5810923 z" />
  </g>
</svg>
