<?xml version="1.0" encoding="UTF-8" standalone="no"?> <svg xmlns="http://www.w3.org/2000/svg" viewBox="0 0 64 63.95"><defs><style>.cls-1{fill:#35353d;}</style></defs><title>Asset 50</title><g id="Layer_2" data-name="Layer 2"><g id="Layer_1-2" data-name="Layer 1"><path class="cls-1" d="M58.67,0H5.33A5.35,5.35,0,0,0,0,5.33v40a5.35,5.35,0,0,0,5.33,5.34H26.67v7.94h-8a2.67,2.67,0,0,0,0,5.34H45.33a2.67,2.67,0,0,0,0-5.34h-8V50.67H58.67A5.35,5.35,0,0,0,64,45.33v-40A5.35,5.35,0,0,0,58.67,0ZM32,48a2.67,2.67,0,1,1,2.67-2.67A2.68,2.68,0,0,1,32,48Zm6.67-1.34A1.33,1.33,0,1,1,40,45.28,1.32,1.32,0,0,1,38.67,46.61Zm5.33,0a1.33,1.33,0,1,1,1.33-1.33A1.31,1.31,0,0,1,44,46.61ZM58.67,40H5.33V5.33H58.67Z"/></g></g></svg>