<?xml version="1.0" encoding="UTF-8" standalone="no"?>
<svg
   xmlns:dc="http://purl.org/dc/elements/1.1/"
   xmlns:cc="http://creativecommons.org/ns#"
   xmlns:rdf="http://www.w3.org/1999/02/22-rdf-syntax-ns#"
   xmlns:svg="http://www.w3.org/2000/svg"
   xmlns="http://www.w3.org/2000/svg"
   xmlns:sodipodi="http://sodipodi.sourceforge.net/DTD/sodipodi-0.dtd"
   xmlns:inkscape="http://www.inkscape.org/namespaces/inkscape"
   inkscape:version="1.0 (4035a4fb49, 2020-05-01)"
   sodipodi:docname="icon.svg"
   id="svg8"
   version="1.1"
   viewBox="0 0 12.7 12.7"
   height="48"
   width="48">
  <defs
     id="defs2" />
  <sodipodi:namedview
     inkscape:window-maximized="1"
     inkscape:window-y="-12"
     inkscape:window-x="-12"
     inkscape:window-height="1708"
     inkscape:window-width="3200"
     showborder="true"
     units="px"
     showgrid="false"
     inkscape:document-rotation="0"
     inkscape:current-layer="layer1"
     inkscape:document-units="px"
     inkscape:cy="28.452762"
     inkscape:cx="24.031553"
     inkscape:zoom="22.4"
     inkscape:pageshadow="2"
     inkscape:pageopacity="0.0"
     borderopacity="1.0"
     bordercolor="#666666"
     pagecolor="#ffffff"
     id="base" />
  <metadata
     id="metadata5">
    <rdf:RDF>
      <cc:Work
         rdf:about="">
        <dc:format>image/svg+xml</dc:format>
        <dc:type
           rdf:resource="http://purl.org/dc/dcmitype/StillImage" />
        <dc:title></dc:title>
      </cc:Work>
    </rdf:RDF>
  </metadata>
  <g
     id="layer1"
     inkscape:groupmode="layer"
     inkscape:label="Layer 1">
    <g
       style="font-style:normal;font-weight:normal;font-size:8.46667px;line-height:1.25;font-family:sans-serif;fill:#202514;fill-opacity:1;stroke:none;stroke-width:0.264583;stroke-opacity:1"
       id="text1404-9-8"
       aria-label="W">
      <path
         id="path1508"
         style="font-style:normal;font-variant:normal;font-weight:normal;font-stretch:normal;font-size:8.46667px;font-family:Broadway;-inkscape-font-specification:Broadway;fill:#202514;fill-opacity:1;stroke:none;stroke-width:0.264583;stroke-opacity:1"
         d="m 9.2060837,6.7973824 q 0.6697268,-1.599903 1.0996753,-2.7615897 0.07028,-0.1901693 0.111621,-0.2356446 0.04134,-0.049609 0.14056,-0.049609 0.08268,0 0.14056,0.041341 0.06201,0.041341 0.06201,0.099219 0,0.053743 -0.322461,0.785482 L 10.198272,5.2140159 8.1436158,9.8690307 7.1224891,7.9466667 6.3204706,6.5162625 5.6879508,7.673815 4.7247017,9.4804238 4.5262641,9.8690307 3.7283797,7.9011914 3.0255799,6.1938014 Q 2.5046813,4.9080913 2.0209897,3.8828304 L 1.996185,3.8290869 h 2.5879567 l 0.355534,0.9095056 Q 5.4853791,6.1028508 5.803706,6.78498 L 6.5685175,5.3793805 6.8496374,4.8502136 7.0398068,4.4946796 7.3581337,3.8993669 q 0.074414,-0.1446941 0.14056,-0.2604493 l 0.6118492,1.1947596 q 0.5291669,1.0128584 1.0955408,1.9637052 z" />
    </g>
    <path
       d="m 9.2060837,6.2682161 q 0.6697268,-1.5999029 1.0996753,-2.7615896 0.07028,-0.1901693 0.111621,-0.2356446 0.04134,-0.049609 0.14056,-0.049609 0.08268,0 0.14056,0.041341 0.06201,0.041341 0.06201,0.099219 0,0.053744 -0.322461,0.7854821 L 10.198272,4.6848496 8.1436158,9.3398645 7.1224891,7.4175005 6.3204706,5.9870962 5.6879508,7.1446488 4.7247017,8.9512576 4.5262641,9.3398645 3.7283797,7.3720252 3.0255799,5.6646352 Q 2.5046813,4.378925 2.0209897,3.3536642 L 1.996185,3.2999207 h 2.5879567 l 0.355534,0.9095056 Q 5.4853791,5.5736846 5.803706,6.2558138 L 6.5685175,4.8502143 6.8496374,4.3210474 7.0398068,3.9655134 7.3581337,3.3702007 q 0.074414,-0.1446941 0.14056,-0.2604493 l 0.6118492,1.1947595 q 0.5291669,1.0128585 1.0955408,1.9637052 z"
       style="font-style:normal;font-variant:normal;font-weight:normal;font-stretch:normal;font-size:8.46667px;line-height:1.25;font-family:Broadway;-inkscape-font-specification:Broadway;fill:#46512d;fill-opacity:1;stroke:none;stroke-width:0.264583;stroke-opacity:1"
       id="path1511" />
    <path
       d="m 9.2060837,5.7390499 q 0.6697268,-1.599903 1.0996753,-2.7615896 0.07028,-0.1901694 0.111621,-0.2356446 0.04134,-0.049609 0.14056,-0.049609 0.08268,0 0.14056,0.041341 0.06201,0.041341 0.06201,0.099219 0,0.053743 -0.322461,0.7854821 L 10.198272,4.1556834 8.1436158,8.8106983 7.1224891,6.8883342 6.3204706,5.45793 5.6879508,6.6154826 4.7247017,8.4220914 4.5262641,8.8106983 3.7283797,6.842859 3.0255799,5.135469 Q 2.5046813,3.8497588 2.0209897,2.824498 L 1.996185,2.7707545 H 4.5841417 L 4.9396757,3.68026 Q 5.4853791,5.0445184 5.803706,5.7266476 L 6.5685175,4.3210481 6.8496374,3.7918812 7.0398068,3.4363472 7.3581337,2.8410345 q 0.074414,-0.1446941 0.14056,-0.2604494 l 0.6118492,1.1947596 q 0.5291669,1.0128585 1.0955408,1.9637052 z"
       style="font-style:normal;font-variant:normal;font-weight:normal;font-stretch:normal;font-size:8.46667px;line-height:1.25;font-family:Broadway;-inkscape-font-specification:Broadway;fill:#7bad00;fill-opacity:1;stroke:none;stroke-width:0.264583;stroke-opacity:1"
       id="path1505" />
  </g>
</svg>
